# xmcd
# 
# Track frame offsets:
#     150
#     18466
#     32327
#     42931
#     53287
#     68884
#     83230
#     94869
#     112775
#     126780
#     139032
#     161946
# 
# Disc length: 2340
# 
# Revision: 0
# Processed by: cddbd v1.5.2PL0 Copyright (c) Steve Scherf et al.
# Submitted via: fre:ac v1.0.17
# 
DISCID=9109220c
DTITLE=Lee Greenwood - Tender Tennessee Christmas
DYEAR=2007
DGENRE=Country
TTITLE0=Tender Tennessee Christmas
TTITLE1=Christmas To Christmas
TTITLE2=White Christmas
TTITLE3=The Christmas Song
TTITLE4=The Little Drummer Boy
TTITLE5=The Greatest Gift Of All
TTITLE6=He Would Be King
TTITLE7=Till The Season Comes Again
TTITLE8=O Holy Night
TTITLE9=God Bless The USA
TTITLE10=12 Days Of Christmas
TTITLE11=What Child Is This
EXTD=
EXTT0=
EXTT1=
EXTT2=
EXTT3=
EXTT4=
EXTT5=
EXTT6=
EXTT7=
EXTT8=
EXTT9=
EXTT10=
EXTT11=
PLAYORDER=
